HIERARCHY
ROOT hip
{
  OFFSET 0 0 0
  CHANNELS 6 Xposition Yposition Zposition Zrotation Yrotation Xrotation
  JOINT abdomen
  {
    OFFSET 0 20.6881 -0.73152
    CHANNELS 3 Zrotation Xrotation Yrotation
    JOINT chest
    {
      OFFSET 0 11.7043 -0.48768
      CHANNELS 3 Zrotation Xrotation Yrotation
      JOINT neck
      {
        OFFSET 0 22.1894 -2.19456
        CHANNELS 3 Zrotation Xrotation Yrotation
        JOINT head
        {
          OFFSET -0.24384 7.07133 1.2192
          CHANNELS 3 Zrotation Xrotation Yrotation
          JOINT leftEye
          {
            OFFSET 4.14528 8.04674 8.04672
            CHANNELS 3 Zrotation Xrotation Yrotation
            End Site
            {
              OFFSET 1 0 0
            }
          }
          JOINT rightEye
          {
            OFFSET -3.6576 8.04674 8.04672
            CHANNELS 3 Zrotation Xrotation Yrotation
            End Site
            {
              OFFSET 1 0 0
            }
          }
        }
      }
      JOINT rCollar
      {
        OFFSET -2.68224 19.2634 -4.8768
        CHANNELS 3 Zrotation Xrotation Yrotation
        JOINT rShldr
        {
          OFFSET -8.77824 -1.95073 1.46304
          CHANNELS 3 Zrotation Xrotation Yrotation
          JOINT rForeArm
          {
            OFFSET -28.1742 -1.7115 0.48768
            CHANNELS 3 Zrotation Xrotation Yrotation
            JOINT rHand
            {
              OFFSET -22.5879 0.773209 7.07136
              CHANNELS 3 Zrotation Xrotation Yrotation
              JOINT rThumb1
              {
                OFFSET -1.2192 -0.487915 3.41376
                CHANNELS 3 Zrotation Xrotation Yrotation
                JOINT rThumb2
                {
                  OFFSET -3.37035 -0.52449 3.41376
                  CHANNELS 3 Zrotation Xrotation Yrotation
                  End Site
                  {
                    OFFSET -1.78271 -1.18214 1.43049
                  }
                }
              }
              JOINT rIndex1
              {
                OFFSET -7.75947 0.938293 5.60832
                CHANNELS 3 Zrotation Xrotation Yrotation
                JOINT rIndex2
                {
                  OFFSET -2.54057 -0.884171 1.56538
                  CHANNELS 3 Zrotation Xrotation Yrotation
                  End Site
                  {
                    OFFSET -1.62519 -0.234802 1.16502
                  }
                }
              }
              JOINT rMid1
              {
                OFFSET -8.24714 1.18213 3.41376
                CHANNELS 3 Zrotation Xrotation Yrotation
                JOINT rMid2
                {
                  OFFSET -3.10165 -0.590103 1.0647
                  CHANNELS 3 Zrotation Xrotation Yrotation
                  End Site
                  {
                    OFFSET -2.48547 -0.328903 0.83742
                  }
                }
              }
              JOINT rRing1
              {
                OFFSET -8.82822 0.546677 1.51678
                CHANNELS 3 Zrotation Xrotation Yrotation
                JOINT rRing2
                {
                  OFFSET -2.60934 -0.819778 -0.0198488
                  CHANNELS 3 Zrotation Xrotation Yrotation
                  End Site
                  {
                    OFFSET -2.33842 -0.294052 0.168128
                  }
                }
              }
              JOINT rPinky1
              {
                OFFSET -8.27202 -0.0477905 -0.4584
                CHANNELS 3 Zrotation Xrotation Yrotation
                JOINT rPinky2
                {
                  OFFSET -1.82734 -0.647385 -0.700984
                  CHANNELS 3 Zrotation Xrotation Yrotation
                  End Site
                  {
                    OFFSET -1.69225 -0.51767 -0.607171
                  }
                }
              }
            }
          }
        }
      }
      JOINT lCollar
      {
        OFFSET 2.68224 19.2634 -4.8768
        CHANNELS 3 Zrotation Xrotation Yrotation
        JOINT lShldr
        {
          OFFSET 8.77824 -1.95073 1.46304
          CHANNELS 3 Zrotation Xrotation Yrotation
          JOINT lForeArm
          {
            OFFSET 28.1742 -1.7115 0.48768
            CHANNELS 3 Zrotation Xrotation Yrotation
            JOINT lHand
            {
              OFFSET 22.5879 0.773209 7.07136
              CHANNELS 3 Zrotation Xrotation Yrotation
              JOINT lThumb1
              {
                OFFSET 1.2192 -0.487915 3.41376
                CHANNELS 3 Zrotation Xrotation Yrotation
                JOINT lThumb2
                {
                  OFFSET 3.37035 -0.52449 3.41376
                  CHANNELS 3 Zrotation Xrotation Yrotation
                  End Site
                  {
                    OFFSET 1.78271 -1.18214 1.43049
                  }
                }
              }
              JOINT lIndex1
              {
                OFFSET 7.75947 0.938293 5.60832
                CHANNELS 3 Zrotation Xrotation Yrotation
                JOINT lIndex2
                {
                  OFFSET 2.54057 -0.884171 1.56538
                  CHANNELS 3 Zrotation Xrotation Yrotation
                  End Site
                  {
                    OFFSET 1.62519 -0.234802 1.16502
                  }
                }
              }
              JOINT lMid1
              {
                OFFSET 8.24714 1.18213 3.41376
                CHANNELS 3 Zrotation Xrotation Yrotation
                JOINT lMid2
                {
                  OFFSET 3.10165 -0.590103 1.0647
                  CHANNELS 3 Zrotation Xrotation Yrotation
                  End Site
                  {
                    OFFSET 2.48547 -0.328903 0.83742
                  }
                }
              }
              JOINT lRing1
              {
                OFFSET 8.82822 0.546677 1.51678
                CHANNELS 3 Zrotation Xrotation Yrotation
                JOINT lRing2
                {
                  OFFSET 2.60934 -0.819778 -0.0198488
                  CHANNELS 3 Zrotation Xrotation Yrotation
                  End Site
                  {
                    OFFSET 2.33842 -0.294052 0.168128
                  }
                }
              }
              JOINT lPinky1
              {
                OFFSET 8.27202 -0.0477905 -0.4584
                CHANNELS 3 Zrotation Xrotation Yrotation
                JOINT lPinky2
                {
                  OFFSET 1.82734 -0.647385 -0.700984
                  CHANNELS 3 Zrotation Xrotation Yrotation
                  End Site
                  {
                    OFFSET 1.69225 -0.51767 -0.607171
                  }
                }
              }
            }
          }
        }
      }
    }
  }
  JOINT rButtock
  {
    OFFSET -8.77824 4.35084 1.2192
    CHANNELS 3 Zrotation Xrotation Yrotation
    JOINT rThigh
    {
      OFFSET 0 -1.70687 -2.19456
      CHANNELS 3 Zrotation Xrotation Yrotation
      JOINT rShin
      {
        OFFSET 0 -36.8199 0.73152
        CHANNELS 3 Zrotation Xrotation Yrotation
        JOINT rFoot
        {
          OFFSET 0.73152 -45.1104 -5.12064
          CHANNELS 3 Zrotation Xrotation Yrotation
          End Site
          {
            OFFSET -1.1221 -3.69964 12.103
          }
        }
      }
    }
  }
  JOINT lButtock
  {
    OFFSET 8.77824 4.35084 1.2192
    CHANNELS 3 Zrotation Xrotation Yrotation
    JOINT lThigh
    {
      OFFSET 0 -1.70687 -2.19456
      CHANNELS 3 Zrotation Xrotation Yrotation
      JOINT lShin
      {
        OFFSET 0 -36.8199 0.73152
        CHANNELS 3 Zrotation Xrotation Yrotation
        JOINT lFoot
        {
          OFFSET -0.73152 -45.1104 -5.12064
          CHANNELS 3 Zrotation Xrotation Yrotation
          End Site
          {
            OFFSET 1.1221 -3.69964 12.103
          }
        }
      }
    }
  }
}
MOTION
Frames:	4
Frame Time:	0.03333
-0.5364000201225281 57.59749984741211 -0.7059999704360962 -214.06999826431274 -245.45100688934326 153.5920000076294 10.525800213217735 21.66399970650673 5.139100067317486 7.151150107383728 -8.744529783725739 2.4512099660933018 -10.106300041079521 23.93360048532486 -18.7630994617939 20.28269961476326 -32.637899816036224 -32.36209899187088 0.0 0.0 0.0 0.0 0.0 0.0 0.0 0.0 0.0 54.324302673339844 -18.30639973282814 14.127799719572067 -27.062700390815735 -26.549400687217712 61.75609767436981 -20.200200229883194 -72.87169754505157 -27.13139981031418 -9.72022462519817e-10 -1.2968826013093349e-09 7.469225238310173e-10 -1.6933654478634708e-09 -1.8135892787540797e-09 1.2073542166035622e-09 -9.72022462519817e-10 -1.2968826013093349e-09 7.469225238310173e-10 7.7309102565050125 5.474880114197731 0.41731400415301323 -9.72022462519817e-10 -1.2968826013093349e-09 7.469225238310173e-10 2.905540131032467 0.9651830233633518 0.102901995414868 -9.72022462519817e-10 -1.2968826013093349e-09 7.469225238310173e-10 10.27859978377819 0.7318009994924068 0.025912300043273717 -9.72022462519817e-10 -1.2968826013093349e-09 7.469225238310173e-10 2.221670038998127 -0.733487019315362 -0.2089200052432716 0.0 0.0 0.0 -110.90700387954712 46.87290072441101 47.74109959602356 27.954899668693542 -40.64599961042404 -85.0872015953064 8.940060138702393 -61.4680016040802 14.981100261211395 -1.3608314475277439e-09 9.208633855450898e-11 9.208633855450898e-11 -2.348201633139979e-09 1.944044925039634e-10 1.1254996934439987e-10 -1.3608314475277439e-09 9.208633855450898e-11 9.208633855450898e-11 -7.7309102565050125 5.474880114197731 -0.41731400415301323 -1.3608314475277439e-09 9.208633855450898e-11 9.208633855450898e-11 -2.905540131032467 0.9651830233633518 -0.102901995414868 -1.3608314475277439e-09 9.208633855450898e-11 9.208633855450898e-11 -10.27859978377819 0.7318009994924068 -0.025912300043273717 -1.3608314475277439e-09 9.208633855450898e-11 9.208633855450898e-11 -2.221670038998127 -0.733487019315362 0.2089200052432716 0.0 0.0 0.0 -21.605299562215805 1.3633700273931026 -12.085199654102325 -0.28579900972545147 46.5529990196228 1.986680030822754 -10.6072998046875 -10.464199930429459 -26.77440047264099 0.0 0.0 0.0 102.16999769210815 -59.0565025806427 92.73459792137146 100.21000027656555 88.8483989238739 -100.0909960269928 0.06750849774107337 -1.6910600289702415 -1.092709992080927
-1.1211000084877014 57.82040023803711 -1.5539999604225159 -211.84000968933105 -244.38400268554688 155.91599464416504 10.152499750256538 22.897801101207733 5.269270017743111 7.235549837350845 -9.243460223078728 2.532500009983778 -9.587700292468071 23.79950076341629 -18.514899909496307 20.24429976940155 -33.61650109291077 -31.732300221920013 0.0 0.0 0.0 0.0 0.0 0.0 0.0 0.0 0.0 53.82730007171631 -17.081599831581116 14.56650048494339 -27.138800024986267 -26.812200844287872 62.17030048370361 -20.084999352693558 -72.80319929122925 -27.01060116291046 -3.749960342247505e-09 1.396642801410053e-09 1.2175860319985077e-09 -6.461391421908047e-09 3.5990410651720595e-09 1.8519585864851251e-09 -3.749960342247505e-09 1.396642801410053e-09 1.2175860319985077e-09 7.7309102565050125 5.474880114197731 0.41731400415301323 -3.749960342247505e-09 1.396642801410053e-09 1.2175860319985077e-09 2.905540131032467 0.9651830233633518 0.102901995414868 -3.749960342247505e-09 1.396642801410053e-09 1.2175860319985077e-09 10.27859978377819 0.7318009994924068 0.025912300043273717 -3.749960342247505e-09 1.396642801410053e-09 1.2175860319985077e-09 2.221670038998127 -0.733487019315362 -0.2089200052432716 0.0 0.0 0.0 -107.31000065803528 46.9415009021759 44.711201190948486 27.871499061584473 -41.05239987373352 -85.82210004329681 8.294760212302208 -60.261898040771484 14.2420993745327 5.167066774447449e-10 -9.566747394273989e-10 9.515588317299262e-10 8.44124770082999e-10 -1.7342927094432525e-09 1.6780177247710526e-09 5.167066774447449e-10 -9.566747394273989e-10 9.515588317299262e-10 -7.7309102565050125 5.474880114197731 -0.41731400415301323 5.167066774447449e-10 -9.566747394273989e-10 9.515588317299262e-10 -2.905540131032467 0.9651830233633518 -0.102901995414868 5.167066774447449e-10 -9.566747394273989e-10 9.515588317299262e-10 -10.27859978377819 0.7318009994924068 -0.025912300043273717 5.167066774447449e-10 -9.566747394273989e-10 9.515588317299262e-10 -2.221670038998127 -0.733487019315362 0.2089200052432716 0.0 0.0 0.0 -22.740401029586792 -1.0719999857246876 -11.881599873304367 -0.3246920043602586 47.72689998149872 1.976429969072342 -10.007899850606918 -9.815439954400063 -25.871601104736328 0.0 0.0 0.0 101.06699824333191 -59.46570038795471 91.6985034942627 66.54790163040161 88.76809895038605 -66.34529829025269 0.4575199820101261 -1.3356100022792816 0.6613580184057355
-1.7506999969482422 58.18000030517578 -2.562999904155731 -209.52301025390625 -242.74399280548096 158.59399795532227 9.673960134387016 24.205799102783203 5.34068014472723 7.296049743890762 -9.784919768571854 2.5925199687480927 -9.136910140514374 23.564700186252594 -18.12200054526329 20.206900388002396 -34.644900262355804 -30.826000571250916 0.0 0.0 0.0 0.0 0.0 0.0 0.0 0.0 0.0 53.48520040512085 -15.433300584554672 15.35789966583252 -27.22699910402298 -27.127599120140076 62.676599621772766 -19.36030000448227 -72.37269937992096 -26.25129997730255 -5.43309397471603e-09 4.96243046654854e-09 1.0129497240995988e-09 -9.326299732492771e-09 1.0124381333298516e-08 1.3812950783176348e-09 -5.43309397471603e-09 4.96243046654854e-09 1.0129497240995988e-09 7.7309102565050125 5.474880114197731 0.41731400415301323 -5.43309397471603e-09 4.96243046654854e-09 1.0129497240995988e-09 2.905540131032467 0.9651830233633518 0.102901995414868 -5.43309397471603e-09 4.96243046654854e-09 1.0129497240995988e-09 10.27859978377819 0.7318009994924068 0.025912300043273717 -5.43309397471603e-09 4.96243046654854e-09 1.0129497240995988e-09 2.221670038998127 -0.733487019315362 -0.2089200052432716 0.0 0.0 0.0 -102.92200326919556 46.30929887294769 41.00880056619644 27.79089868068695 -41.39860063791275 -86.46659731864929 7.5552798807621 -58.736300468444824 13.384200185537338 3.0235014492063783e-09 -1.7138290786533616e-09 1.596163201611489e-09 5.115907697472721e-09 -3.1437252800969873e-09 2.9058355721645057e-09 3.0235014492063783e-09 -1.7138290786533616e-09 1.596163201611489e-09 -7.7309102565050125 5.474880114197731 -0.41731400415301323 3.0235014492063783e-09 -1.7138290786533616e-09 1.596163201611489e-09 -2.905540131032467 0.9651830233633518 -0.102901995414868 3.0235014492063783e-09 -1.7138290786533616e-09 1.596163201611489e-09 -10.27859978377819 0.7318009994924068 -0.025912300043273717 3.0235014492063783e-09 -1.7138290786533616e-09 1.596163201611489e-09 -2.221670038998127 -0.733487019315362 0.2089200052432716 0.0 0.0 0.0 -24.06060039997101 -3.8872698694467545 -11.623799353837967 -0.3570800134912133 48.60470116138458 1.9537500478327274 -9.30788017809391 -9.145660176873207 -24.70839947462082 0.0 0.0 0.0 99.81300115585327 -59.98059868812561 90.46159744262695 39.547900557518005 88.23370099067688 -39.25049990415573 0.9021749999374151 -0.7660180237144232 2.7371899411082268
-2.3400999903678894 58.729698181152344 -3.8339999318122864 -206.89199924468994 -240.58899879455566 161.67099595069885 9.267620220780373 25.765399038791656 4.968469999730587 7.449669912457466 -10.32289981842041 2.549609988927841 -9.019360318779945 23.071101307868958 -17.41230010986328 20.157499462366104 -35.46279966831207 -29.33949887752533 0.0 0.0 0.0 0.0 0.0 0.0 0.0 0.0 0.0 53.19580078125 -12.948000580072403 16.959799379110336 -27.306400537490845 -27.420201301574707 63.139801025390625 -17.318900227546692 -71.01360261440277 -24.102000296115875 -2.5630697564338334e-09 1.0523422133701388e-08 -1.5654677554266527e-09 -4.292246558179613e-09 1.854772335718735e-08 -2.844444679794833e-09 -2.5630697564338334e-09 1.0523422133701388e-08 -1.5654677554266527e-09 7.7309102565050125 5.474880114197731 0.41731400415301323 -2.5630697564338334e-09 1.0523422133701388e-08 -1.5654677554266527e-09 2.905540131032467 0.9651830233633518 0.102901995414868 -2.5630697564338334e-09 1.0523422133701388e-08 -1.5654677554266527e-09 10.27859978377819 0.7318009994924068 0.025912300043273717 -2.5630697564338334e-09 1.0523422133701388e-08 -1.5654677554266527e-09 2.221670038998127 -0.733487019315362 -0.2089200052432716 0.0 0.0 0.0 -98.09709548950195 44.4498011469841 36.8011012673378 27.73550033569336 -41.61790072917938 -86.8829995393753 6.7462800443172455 -56.85719847679138 12.428499609231949 5.4791371439932846e-09 -6.701839083689265e-10 7.16227077646181e-10 9.387690624862444e-09 -1.3250200936454348e-09 1.4836132322670892e-09 5.4791371439932846e-09 -6.701839083689265e-10 7.16227077646181e-10 -7.7309102565050125 5.474880114197731 -0.41731400415301323 5.4791371439932846e-09 -6.701839083689265e-10 7.16227077646181e-10 -2.905540131032467 0.9651830233633518 -0.102901995414868 5.4791371439932846e-09 -6.701839083689265e-10 7.16227077646181e-10 -10.27859978377819 0.7318009994924068 -0.025912300043273717 5.4791371439932846e-09 -6.701839083689265e-10 7.16227077646181e-10 -2.221670038998127 -0.733487019315362 0.2089200052432716 0.0 0.0 0.0 -25.178099870681763 -6.820469945669174 -10.905700251460075 -0.37296200171113014 48.7667977809906 1.903530042618513 -8.439779877662659 -8.145510032773018 -23.52099895477295 0.0 0.0 0.0 97.96979784965515 -60.532302260398865 88.5809987783432 24.151800870895386 87.27689802646637 -23.759999871253967 1.411180067807436 -0.0036237298627384007 5.419449917972088
